PathFileType	4	(X/Y/Z)	/Users/niels/Desktop/University/Third Semester/Perception and Action/Exam/Gymnastics Motion Tracking/Code for Gym Tracking/Analyzed Data/Webcam_Backflip/id1_5_baseline_Sports2D/id1_5_baseline_Sports2D_px_person00.trc
DataRate	CameraRate	NumFrames	NumMarkers	Units	OrigDataRate	OrigDataStartFrame	OrigNumFrames
29.87551867219917	29.87551867219917	10	22	m	29.87551867219917	150	241
Frame#	Time	Hip			RHip			RKnee			RAnkle			RBigToe			RSmallToe			RHeel			LHip			LKnee			LAnkle			LBigToe			LSmallToe			LHeel			Neck			Head			Nose			RShoulder			RElbow			RWrist			LShoulder			LElbow			LWrist		
		X1	Y1	Z1	X2	Y2	Z2	X3	Y3	Z3	X4	Y4	Z4	X5	Y5	Z5	X6	Y6	Z6	X7	Y7	Z7	X8	Y8	Z8	X9	Y9	Z9	X10	Y10	Z10	X11	Y11	Z11	X12	Y12	Z12	X13	Y13	Z13	X14	Y14	Z14	X15	Y15	Z15	X16	Y16	Z16	X17	Y17	Z17	X18	Y18	Z18	X19	Y19	Z19	X20	Y20	Z20	X21	Y21	Z21	X22	Y22	Z22
150	5.020833333333333	0.8874301829902749	-0.613497590582668	0.0	0.8795765313388393	-0.6126463855410481	0.0	0.8921059161282725	-0.713035365311858	0.0	0.7961202527969751	-0.7803526669940575	0.0	0.7862383925103489	-0.8298354820951002	0.0	0.7791054805034494	-0.8235268973400399	0.0	0.7799809799281866	-0.7799597452289806	0.0	0.8990796661938589	-0.6125002869184092	0.0	0.9065744966130131	-0.7140374927078719	0.0	0.8978671663462013	-0.8221870846039021	0.0	0.9378877570763602	-0.8367738299490372	0.0	0.9342531693201847	-0.8353890587211196	0.0	0.888505671428462	-0.8334792468217435	0.0	0.9233225485929162	-0.4615235816015889	0.0	0.9765473322027045	-0.41499684903080686	0.0	0.9697649631265336	-0.4558834652375849	0.0	0.8942526342909526	-0.47677123790453263	0.0	0.8512027826437348	-0.5393548022382586	0.0	0.84312831125418	-0.6120142704356601	0.0	0.9195427975477241	-0.4817142826455	0.0	0.8868584505378762	-0.5451499566765771	0.0	0.872954021661162	-0.6045402032271087	0.0
151	5.054305555555556	0.8899711260024136	-0.6135333770887018	0.0	0.8827007407543505	-0.6126763543965579	0.0	0.9039712274288546	-0.7127179790648199	0.0	0.8088158754707826	-0.7784790475364232	0.0	0.8038491109165505	-0.8283153435408341	0.0	0.7958065355031307	-0.8223388852102073	0.0	0.7921165447606899	-0.7781773097637759	0.0	0.9003454643947785	-0.6125376492472823	0.0	0.9073728054732032	-0.7148394352051878	0.0	0.8971909826801581	-0.8229236897369617	0.0	0.9388286989008424	-0.8367401039480518	0.0	0.9347171569453014	-0.8351356829340986	0.0	0.88782751951887	-0.8344325525431372	0.0	0.9243302385109875	-0.46244928538628643	0.0	0.9767901289376191	-0.4156184267853793	0.0	0.9702485678429177	-0.45719376252575744	0.0	0.8951743137668183	-0.47782819889906636	0.0	0.8532363463325795	-0.5415931510597687	0.0	0.8469071476079267	-0.615894362997823	0.0	0.9212490996974705	-0.48245064809690524	0.0	0.8910710363028014	-0.547846017070348	0.0	0.8854447146925576	-0.6073993874875079	0.0
152	5.087777777777778	0.892225665609698	-0.6118366760172022	0.0	0.8854300827544523	-0.6109389226051615	0.0	0.9142793278695927	-0.7102490169494873	0.0	0.8233231390410639	-0.7779458656373706	0.0	0.8259683193792244	-0.8268549868121461	0.0	0.8166428072784176	-0.8216768998742209	0.0	0.8063031139869016	-0.7788870659398758	0.0	0.9015212317568201	-0.6107693023766767	0.0	0.9079785232508597	-0.7134998939802579	0.0	0.896687987739499	-0.8217506128706942	0.0	0.9400100407208106	-0.8353877800951183	0.0	0.9354486074411841	-0.8335053737950474	0.0	0.8873328168168456	-0.8336250641976752	0.0	0.924709487721744	-0.4614133896075731	0.0	0.9766626016863676	-0.41416150854714395	0.0	0.9703352111750083	-0.45621748495693276	0.0	0.8955010319615613	-0.4767638261874531	0.0	0.8547979023075001	-0.5417775809415014	0.0	0.8502869777324563	-0.6173704980567443	0.0	0.9223562447353109	-0.48111173837727456	0.0	0.894724755861376	-0.5484075471463642	0.0	0.8963427392393977	-0.6075320037711085	0.0
153	5.12125	0.894154495371144	-0.6086956384906606	0.0	0.8878174713501251	-0.607831540136182	0.0	0.9220487497887743	-0.7062674011408213	0.0	0.8391033244666023	-0.7795243999343762	0.0	0.8509590091502239	-0.8256475025900357	0.0	0.8403835971974669	-0.8217655452815312	0.0	0.8221766839881772	-0.7828967004807689	0.0	0.902611793128439	-0.6075573978175933	0.0	0.9085805166237455	-0.7102358184139347	0.0	0.8963031150444328	-0.818710764090812	0.0	0.9411189058820438	-0.8329080628655006	0.0	0.9361621422454272	-0.8307372778717367	0.0	0.8869679097202116	-0.8311774570176832	0.0	0.9246568356333773	-0.45855956247641716	0.0	0.9764331521030587	-0.4107009973457943	0.0	0.970206653135314	-0.45298317759753604	0.0	0.8955544415825005	-0.4737520639906856	0.0	0.8560820639858604	-0.5399874629334525	0.0	0.853668350966043	-0.6164568366402454	0.0	0.9229143586774287	-0.4779372418623819	0.0	0.8978611996130772	-0.5467637525966117	0.0	0.9058870203305968	-0.6048030391784561	0.0
154	5.154722222222222	0.8957867789816547	-0.6044554787924244	0.0	0.8899085464326655	-0.6037678024048635	0.0	0.9265861153165575	-0.7015225083295983	0.0	0.8551830325332592	-0.7830444369571278	0.0	0.8766018475545047	-0.8243771986052694	0.0	0.86514806138775	-0.8222273063655019	0.0	0.8389427208543997	-0.7898261620149317	0.0	0.9035822979672185	-0.6033166382836498	0.0	0.9094573785023703	-0.7054759513862735	0.0	0.895969267280565	-0.8140398023816163	0.0	0.9418622535533241	-0.8295013027743727	0.0	0.9365734891734364	-0.8271116707382938	0.0	0.8866069015993161	-0.8274073068073535	0.0	0.9244100542252182	-0.45419550663454117	0.0	0.9763550336889564	-0.4054725085728606	0.0	0.9698918254458989	-0.44781995634945193	0.0	0.8955870148398517	-0.46913114223534474	0.0	0.8572682792848549	-0.536437466549769	0.0	0.8573295155521075	-0.6134279293705033	0.0	0.9229950648762556	-0.4733245809419519	0.0	0.9007083101728769	-0.5430939854966915	0.0	0.9147496954753583	-0.5995856874361432	0.0
155	5.188194444444444	0.8972310030288589	-0.5995063773253949	0.0	0.8917759404718465	-0.5991167853119604	0.0	0.9277825514597081	-0.6966898441552082	0.0	0.8701745686001261	-0.7874753237696127	0.0	0.9002453604334099	-0.8225944443132046	0.0	0.8884644253441957	-0.8223895446807368	0.0	0.8552729330031755	-0.7981418989550455	0.0	0.9044660352622569	-0.5984597684315278	0.0	0.9107480452568635	-0.6998209838728476	0.0	0.8957223755638445	-0.8082813436936596	0.0	0.9421702536051568	-0.8253785879299199	0.0	0.9366695052875937	-0.8229340131639409	0.0	0.8862251615532218	-0.8228376195592668	0.0	0.9241322806624832	-0.4487796855919995	0.0	0.9765413765055672	-0.39890431181861574	0.0	0.9693342629247341	-0.44128628074045684	0.0	0.8957066837520044	-0.4634096422460368	0.0	0.8585076671688221	-0.531547605530775	0.0	0.8614197061786989	-0.6087364345824087	0.0	0.9226748771918202	-0.4677639906577595	0.0	0.9035102663732515	-0.5378418664420036	0.0	0.9233761755818573	-0.5926837168978468	0.0
156	5.221666666666667	0.8986603744506999	-0.5942724293898652	0.0	0.8935310084538134	-0.5941988484314488	0.0	0.926209170511009	-0.6922833625296262	0.0	0.8825597780076703	-0.7914734301520636	0.0	0.9193004634260583	-0.8201682840250842	0.0	0.9077370706155121	-0.8217767176078574	0.0	0.8694864994604105	-0.8058191280523724	0.0	0.9054430929773153	-0.5933718737398765	0.0	0.9123009255157533	-0.6940409108101777	0.0	0.8957255854865931	-0.8022987679992264	0.0	0.9422208137652313	-0.8208714314035856	0.0	0.936685140065047	-0.8185639557003548	0.0	0.8860349207599839	-0.8181229026631185	0.0	0.9238599696948108	-0.4428667227889506	0.0	0.9768193112266926	-0.3915819131222774	0.0	0.9684552530657392	-0.4340488959934741	0.0	0.8959147727722669	-0.4572161960676546	0.0	0.8599044801882212	-0.5259344858415554	0.0	0.8660128383558247	-0.6029462491183748	0.0	0.922076859985441	-0.4618039402337062	0.0	0.9063874987832167	-0.531706914667595	0.0	0.9318662216941572	-0.5850397070425317	0.0
157	5.255138888888889	0.9002181796184145	-0.5892076329058922	0.0	0.89527679971715	-0.5893717920914868	0.0	0.9229261695901281	-0.6886345389054362	0.0	0.8912716046703826	-0.7941244277165476	0.0	0.9323035398827278	-0.8174121847798783	0.0	0.9213283472180044	-0.8203960568993703	0.0	0.8801618159783227	-0.8113575397414442	0.0	0.9067336686094231	-0.5884497320988488	0.0	0.9137569603134209	-0.6889777759566854	0.0	0.8961122125983176	-0.7970065236155933	0.0	0.9422099415896509	-0.8164554589198807	0.0	0.9368129674771449	-0.8143914677471412	0.0	0.8863094144044931	-0.8138615845210369	0.0	0.9235517159874782	-0.4370489140722805	0.0	0.9766889363109654	-0.384146802799818	0.0	0.9671612424115588	-0.42680327606935364	0.0	0.8961910315663707	-0.45121715673226587	0.0	0.8615060345780683	-0.5203055546649689	0.0	0.8711732640745209	-0.5966501989729336	0.0	0.9213854460040037	-0.4560152992895247	0.0	0.909295848111571	-0.5255366718509396	0.0	0.94011084423053	-0.5774169265885396	0.0
158	5.288611111111111	0.9018995574225103	-0.5847852657051102	0.0	0.897053162507351	-0.5850823476427887	0.0	0.9191198391922889	-0.6859254806580763	0.0	0.8961821899801913	-0.7953565037321305	0.0	0.9395435456586739	-0.8148456789350428	0.0	0.9292821534991434	-0.8186423170894457	0.0	0.8867786048230555	-0.8143932168908492	0.0	0.9084003069812148	-0.5841314015543326	0.0	0.9147985713026231	-0.6852841753627609	0.0	0.8968158877190313	-0.7930139742088512	0.0	0.9421896268706264	-0.8126072568005378	0.0	0.9370559068266018	-0.8107576715081695	0.0	0.8870589595300491	-0.8104577701998176	0.0	0.9231566409750286	-0.43190571454075877	0.0	0.9755613368608632	-0.37719109230261916	0.0	0.9653784013635547	-0.42018496781421505	0.0	0.8965168773815982	-0.44603008500048874	0.0	0.8633046000954206	-0.5153414440716108	0.0	0.8769853774603554	-0.5904134880871994	0.0	0.9207865758994754	-0.45093613349655265	0.0	0.9120900859168293	-0.5201119996454536	0.0	0.9479014728931179	-0.5703019371620925	0.0
159	5.3220833333333335	0.9035519479319348	-0.581469130099242	0.0	0.8987993896389807	-0.5817973900690819	0.0	0.9157477636644892	-0.6842349140471043	0.0	0.8980424000602669	-0.7957595428331764	0.0	0.9425194667144375	-0.8129278841301723	0.0	0.9329140665428289	-0.8170520014310544	0.0	0.889820195347084	-0.8155349544177488	0.0	0.9102917062639758	-0.5808578443249403	0.0	0.915362004911118	-0.6831956668960094	0.0	0.8976322142814908	-0.7905355062262801	0.0	0.9421460348084177	-0.8096852062195671	0.0	0.9373178168653135	-0.8079277473581447	0.0	0.8880327647134159	-0.8081297003272053	0.0	0.9226698495306531	-0.42793324460791815	0.0	0.9731303615022869	-0.37119070172337515	0.0	0.9631376079866867	-0.41465787945504007	0.0	0.8968498531674794	-0.4421510278185303	0.0	0.8652346041939144	-0.5116060307727782	0.0	0.8834955492594085	-0.5847339072515798	0.0	0.9204258800946089	-0.44704620848403603	0.0	0.9146435967914349	-0.5159981667839806	0.0	0.9550198620137065	-0.5640353456733095	0.0
